<svg width="147" height="48" viewBox="0 0 147 48" fill="none" xmlns="http://www.w3.org/2000/svg">
<path d="M60.4028 33.216C58.2268 33.216 56.4908 32.72 55.1948 31.728C53.9148 30.72 53.1628 29.304 52.9388 27.48H55.9388C56.0828 28.536 56.5548 29.36 57.3548 29.952C58.1548 30.528 59.2028 30.816 60.4988 30.816C61.5708 30.816 62.3868 30.624 62.9468 30.24C63.5228 29.84 63.8108 29.288 63.8108 28.584C63.8108 27.96 63.6348 27.456 63.2828 27.072C62.9308 26.688 62.3388 26.376 61.5068 26.136L58.3867 25.2C56.8028 24.72 55.6348 24.088 54.8828 23.304C54.1468 22.52 53.7788 21.536 53.7788 20.352C53.7788 19.36 54.0348 18.496 54.5468 17.76C55.0588 17.024 55.7788 16.456 56.7068 16.056C57.6508 15.656 58.7468 15.456 59.9948 15.456C61.9148 15.456 63.4428 15.928 64.5788 16.872C65.7308 17.8 66.3868 19.064 66.5468 20.664H63.5468C63.3708 19.704 62.9708 19 62.3468 18.552C61.7228 18.088 60.8828 17.856 59.8268 17.856C58.8988 17.856 58.1628 18.04 57.6188 18.408C57.0748 18.776 56.8028 19.28 56.8028 19.92C56.8028 20.448 56.9628 20.896 57.2828 21.264C57.6188 21.632 58.2348 21.952 59.1308 22.224L62.2988 23.184C63.8828 23.648 65.0348 24.28 65.7548 25.08C66.4748 25.88 66.8348 26.896 66.8348 28.128C66.8348 29.76 66.2668 31.016 65.1308 31.896C64.0108 32.776 62.4348 33.216 60.4028 33.216ZM74.2937 33.24C72.7897 33.24 71.6777 32.888 70.9577 32.184C70.2537 31.464 69.9017 30.392 69.9017 28.968V17.976L72.9497 16.848V29.04C72.9497 29.632 73.1097 30.072 73.4297 30.36C73.7497 30.648 74.2537 30.792 74.9417 30.792C75.2137 30.792 75.4537 30.776 75.6617 30.744C75.8857 30.696 76.0937 30.64 76.2857 30.576V32.928C76.0937 33.024 75.8217 33.096 75.4697 33.144C75.1177 33.208 74.7257 33.24 74.2937 33.24ZM67.5497 23.136V20.76H76.2857V23.136H67.5497ZM85.7756 33C85.6956 32.68 85.6316 32.328 85.5836 31.944C85.5516 31.56 85.5356 31.096 85.5356 30.552H85.4396V24.744C85.4396 24.104 85.2556 23.624 84.8876 23.304C84.5356 22.968 83.9916 22.8 83.2556 22.8C82.5356 22.8 81.9596 22.936 81.5276 23.208C81.1116 23.464 80.8556 23.84 80.7596 24.336H77.8556C77.9836 23.2 78.5276 22.28 79.4876 21.576C80.4476 20.872 81.7356 20.52 83.3516 20.52C85.0316 20.52 86.3036 20.904 87.1676 21.672C88.0316 22.424 88.4636 23.536 88.4636 25.008V30.552C88.4636 30.936 88.4876 31.328 88.5356 31.728C88.5996 32.128 88.6876 32.552 88.7996 33H85.7756ZM81.5276 33.24C80.2956 33.24 79.3116 32.936 78.5756 32.328C77.8556 31.704 77.4956 30.872 77.4956 29.832C77.4956 28.712 77.9036 27.824 78.7196 27.168C79.5356 26.512 80.6876 26.072 82.1756 25.848L85.9916 25.272V27.192L82.6796 27.696C81.9596 27.808 81.4156 28.008 81.0476 28.296C80.6956 28.584 80.5196 28.984 80.5196 29.496C80.5196 29.96 80.6876 30.32 81.0236 30.576C81.3596 30.816 81.8236 30.936 82.4156 30.936C83.2796 30.936 83.9996 30.72 84.5756 30.288C85.1516 29.856 85.4396 29.328 85.4396 28.704L85.7756 30.552C85.4556 31.432 84.9276 32.104 84.1916 32.568C83.4716 33.016 82.5836 33.24 81.5276 33.24ZM96.4029 33.24C95.1709 33.24 94.0829 32.968 93.1389 32.424C92.2109 31.88 91.4749 31.128 90.9309 30.168C90.4029 29.192 90.1389 28.088 90.1389 26.856C90.1389 25.624 90.4029 24.536 90.9309 23.592C91.4749 22.632 92.2109 21.88 93.1389 21.336C94.0829 20.792 95.1709 20.52 96.4029 20.52C97.4109 20.52 98.3229 20.712 99.1389 21.096C99.9549 21.464 100.627 21.992 101.155 22.68C101.683 23.352 102.019 24.136 102.163 25.032H99.2589C99.0829 24.376 98.7469 23.864 98.2509 23.496C97.7549 23.128 97.1549 22.944 96.4509 22.944C95.7949 22.944 95.2269 23.104 94.7469 23.424C94.2829 23.744 93.9229 24.2 93.6669 24.792C93.4109 25.384 93.2829 26.072 93.2829 26.856C93.2829 27.656 93.4109 28.352 93.6669 28.944C93.9229 29.536 94.2909 30 94.7709 30.336C95.2509 30.656 95.8109 30.816 96.4509 30.816C97.1549 30.816 97.7549 30.632 98.2509 30.264C98.7469 29.896 99.0829 29.384 99.2589 28.728H102.163C102.019 29.624 101.675 30.416 101.131 31.104C100.603 31.776 99.9309 32.304 99.1149 32.688C98.3149 33.056 97.4109 33.24 96.4029 33.24ZM104.101 33V15.552H107.125V33H104.101ZM111.997 33L106.429 26.64L111.829 20.76H115.477L109.237 27.192L109.405 26.064L115.717 33H111.997ZM121.896 33.24C120.6 33.24 119.464 32.968 118.488 32.424C117.528 31.88 116.776 31.128 116.232 30.168C115.704 29.208 115.44 28.104 115.44 26.856C115.44 25.608 115.704 24.512 116.232 23.568C116.776 22.608 117.528 21.864 118.488 21.336C119.448 20.792 120.568 20.52 121.848 20.52C123.064 20.52 124.12 20.776 125.016 21.288C125.912 21.784 126.608 22.488 127.104 23.4C127.6 24.312 127.848 25.376 127.848 26.592C127.848 26.816 127.84 27.024 127.824 27.216C127.808 27.408 127.784 27.6 127.752 27.792H117.312V25.68H125.424L124.8 26.256C124.8 25.104 124.536 24.24 124.008 23.664C123.48 23.088 122.744 22.8 121.8 22.8C120.776 22.8 119.96 23.152 119.352 23.856C118.76 24.56 118.464 25.576 118.464 26.904C118.464 28.216 118.76 29.224 119.352 29.928C119.96 30.616 120.816 30.96 121.92 30.96C122.56 30.96 123.12 30.84 123.6 30.6C124.08 30.36 124.432 29.992 124.656 29.496H127.512C127.112 30.648 126.432 31.56 125.472 32.232C124.528 32.904 123.336 33.24 121.896 33.24ZM129.871 33V20.76H132.823V23.712H132.895V33H129.871ZM132.895 26.616L132.583 23.712C132.871 22.672 133.359 21.88 134.047 21.336C134.735 20.792 135.559 20.52 136.519 20.52C136.855 20.52 137.095 20.552 137.239 20.616V23.472C137.159 23.44 137.047 23.424 136.903 23.424C136.759 23.408 136.583 23.4 136.375 23.4C135.207 23.4 134.335 23.656 133.759 24.168C133.183 24.68 132.895 25.496 132.895 26.616Z" fill="white"/>
<g filter="url(#filter0_i_15971_1224)">
<rect x="8.21875" y="8" width="32" height="32" rx="16" fill="#375DFB"/>
<rect x="8.21875" y="8" width="32" height="32" rx="16" fill="white" fill-opacity="0.1"/>
<path d="M28.7422 21.3546H34.5703C35.06 21.3548 35.3504 21.902 35.0762 22.3077L28.4863 32.0519C28.3727 32.2199 28.1824 32.3204 27.9795 32.3204H19.1318C18.642 32.3203 18.3517 31.7731 18.626 31.3673L20.2578 28.9542C20.3715 28.7864 20.5609 28.6857 20.7637 28.6857H21.7197C22.8078 28.6856 23.825 28.1455 24.4346 27.2443L28.2363 21.6232C28.3499 21.4553 28.5395 21.3547 28.7422 21.3546Z" fill="url(#paint0_linear_15971_1224)" fill-opacity="0.68" stroke="url(#paint1_linear_15971_1224)"/>
<g filter="url(#filter1_d_15971_1224)">
<path d="M19.2251 16.0864C19.6386 15.4764 20.3276 15.1111 21.0645 15.1111H28.8241C29.7155 15.1111 30.244 16.1079 29.7438 16.8457L23.469 26.1016C23.0555 26.7116 22.3666 27.0769 21.6296 27.0769H13.87C12.9787 27.0769 12.4502 26.0801 12.9503 25.3423L19.2251 16.0864Z" fill="url(#paint2_linear_15971_1224)" shape-rendering="crispEdges"/>
<path d="M21.0645 15.6111H28.8242C29.3144 15.6112 29.6051 16.1594 29.3301 16.5652L23.0557 25.821C22.7352 26.2937 22.2009 26.5768 21.6299 26.5769H13.8701C13.3799 26.5769 13.0892 26.0286 13.3643 25.6228L19.6387 16.3669C19.9591 15.8942 20.4934 15.6111 21.0645 15.6111Z" stroke="url(#paint3_linear_15971_1224)" shape-rendering="crispEdges"/>
</g>
</g>
<defs>
<filter id="filter0_i_15971_1224" x="8.21875" y="4" width="32" height="36" filterUnits="userSpaceOnUse" color-interpolation-filters="sRGB">
<feFlood flood-opacity="0" result="BackgroundImageFix"/>
<feBlend mode="normal" in="SourceGraphic" in2="BackgroundImageFix" result="shape"/>
<feColorMatrix in="SourceAlpha" type="matrix" values="0 0 0 0 0 0 0 0 0 0 0 0 0 0 0 0 0 0 127 0" result="hardAlpha"/>
<feOffset dy="-4"/>
<feGaussianBlur stdDeviation="4"/>
<feComposite in2="hardAlpha" operator="arithmetic" k2="-1" k3="1"/>
<feColorMatrix type="matrix" values="0 0 0 0 1 0 0 0 0 1 0 0 0 0 1 0 0 0 0.64 0"/>
<feBlend mode="normal" in2="shape" result="effect1_innerShadow_15971_1224"/>
</filter>
<filter id="filter1_d_15971_1224" x="12.7568" y="15.1111" width="21.6251" height="19.7436" filterUnits="userSpaceOnUse" color-interpolation-filters="sRGB">
<feFlood flood-opacity="0" result="BackgroundImageFix"/>
<feColorMatrix in="SourceAlpha" type="matrix" values="0 0 0 0 0 0 0 0 0 0 0 0 0 0 0 0 0 0 127 0" result="hardAlpha"/>
<feOffset dx="2.22222" dy="5.55556"/>
<feGaussianBlur stdDeviation="1.11111"/>
<feComposite in2="hardAlpha" operator="out"/>
<feColorMatrix type="matrix" values="0 0 0 0 0.1344 0 0 0 0 0.268614 0 0 0 0 0.8256 0 0 0 0.32 0"/>
<feBlend mode="normal" in2="BackgroundImageFix" result="effect1_dropShadow_15971_1224"/>
<feBlend mode="normal" in="SourceGraphic" in2="effect1_dropShadow_15971_1224" result="shape"/>
</filter>
<linearGradient id="paint0_linear_15971_1224" x1="26.851" y1="20.8546" x2="26.851" y2="38.999" gradientUnits="userSpaceOnUse">
<stop offset="0.313079" stop-color="white"/>
<stop offset="1" stop-color="white" stop-opacity="0"/>
</linearGradient>
<linearGradient id="paint1_linear_15971_1224" x1="61.4891" y1="-8.18784" x2="26.9278" y2="37.7938" gradientUnits="userSpaceOnUse">
<stop stop-color="white"/>
<stop offset="1" stop-color="white" stop-opacity="0"/>
</linearGradient>
<linearGradient id="paint2_linear_15971_1224" x1="21.3471" y1="15.1111" x2="21.3471" y2="30.934" gradientUnits="userSpaceOnUse">
<stop offset="0.38239" stop-color="white"/>
<stop offset="1" stop-color="white" stop-opacity="0"/>
</linearGradient>
<linearGradient id="paint3_linear_15971_1224" x1="55.1403" y1="-13.9314" x2="20.3508" y2="31.2251" gradientUnits="userSpaceOnUse">
<stop stop-color="white"/>
<stop offset="1" stop-color="white" stop-opacity="0"/>
</linearGradient>
</defs>
</svg>
